# xmcd
#
# Track frame offsets: 
#        150
#        16716
#        30642
#        45675
#        65207
#        80282
#        94319
#        106468
#        118889
#        131479
#        145655
#        158222
#        173847
#        189642
#        206815
#
# Disc length: 2978 seconds
#
# Revision: 0
# Processed by: cddbd v1.5.2PL0 Copyright (c) Steve Scherf et al.
# Submitted via: ExactAudioCopy v1.0b1
#
DISCID=d20ba00f
DTITLE=Thom Shepherd and Steve Williams  - Songs From The Redneck Yacht 
DTITLE=Club
DYEAR=2007
DGENRE=Country
TTITLE0=Redneck Yacht Club
TTITLE1=Tennessee Wildlife
TTITLE2=Baby Talk
TTITLE3=Miss That Mississippi
TTITLE4=Drinkin' and Dialin'
TTITLE5=Country Squire
TTITLE6=Dogcatcher
TTITLE7=I Didn't
TTITLE8=Drunk I Am
TTITLE9=One Elvis Moment
TTITLE10=What The Poor People's Doing
TTITLE11=It's A Woman's World
TTITLE12=Goodbye To Henry
TTITLE13=Djibouti
TTITLE14=Christmas with the Redneck Yacht Club
EXTD=
EXTT0=
EXTT1=
EXTT2=
EXTT3=
EXTT4=
EXTT5=
EXTT6=
EXTT7=
EXTT8=
EXTT9=
EXTT10=
EXTT11=
EXTT12=
EXTT13=
EXTT14=
PLAYORDER=
